# xmcd CD database file
#
# Track frame offsets:
#	150
#	23729
#	44967
#	62492
#	81250
#	100494
#	116536
#	145965
#	167656
#	184067
#	205984
#	227300
#	246299
#	265503
#	282485
#
# Disc length: 4027 seconds
#
# Revision: 0
# Processed by: cddbd v1.5.2PL0 Copyright (c) Steve Scherf et al.
# Submitted via: CDex 1.51
#
DISCID=d50fb90f
DTITLE=Various Artist - Salsa en la Decima avenida NY '07
DYEAR=1900
DGENRE=Salsa
TTITLE0=Aconsejala - Papo Pepin Y Su Orquesta
TTITLE1=Tu Musica Popular - Don Perignon Y La Portorriqueña
TTITLE2=Cara De Lata - El Sindicato De La Salsa
TTITLE3=Estras Crazy - Betto Caicedo
TTITLE4=Pronosticos - Pedro Brull
TTITLE5=Como Se Menea - Hermanos Moreno
TTITLE6=Cuando Regrese - Tito Rojas
TTITLE7=Julio El Gitano - Alfredo De La Fe Y Canario
TTITLE8=Perdiendo Se Va Ganando - Orquesta La Solucion
TTITLE9=Herencia - Willie Sotelo Y La Mundial
TTITLE10=La Cita - Miles Peña
TTITLE11=Mariana Soba - Roberto Delgado
TTITLE12=Montuneando - Salsa Del Barrio
TTITLE13=30 Kilos - Alex Leon
TTITLE14=El Gallo De Matilde - Juanito Y La Agresiva
EXTD=
EXTT0=
EXTT1=
EXTT2=
EXTT3=
EXTT4=
EXTT5=
EXTT6=
EXTT7=
EXTT8=
EXTT9=
EXTT10=
EXTT11=
EXTT12=
EXTT13=
EXTT14=
PLAYORDER=
